<svg xmlns="http://www.w3.org/2000/svg" width="48.342" height="59.069" viewBox="0 0 48.342 59.069"><g stroke="#260E41" stroke-linecap="round" stroke-linejoin="round" stroke-miterlimit="10"><path fill="#F2FE89" stroke-width="1.5" d="M24.171,0.75c-8.959,0-16.248,7.288-16.248,16.247v14.229c0,0.744,0.604,1.348,1.348,1.348h5.285c0.745,0,1.348-0.604,1.348-1.348V16.997c0-4.558,3.708-8.266,8.266-8.266c4.558,0,8.266,3.708,8.266,8.266v14.229c0,0.744,0.604,1.348,1.348,1.348h5.284c0.744,0,1.348-0.604,1.348-1.348V16.997C40.418,8.038,33.13,0.75,24.171,0.75z"/><path fill="#F2FE89" stroke-width="1.5" d="M43.812,58.319H4.53c-2.088,0-3.78-1.692-3.78-3.78V24.192c0-2.088,1.692-3.78,3.78-3.78h39.282c2.088,0,3.78,1.692,3.78,3.78v30.347C47.592,56.627,45.899,58.319,43.812,58.319z"/><path fill="#260E41" d="M30.305,34.644c0-3.387-2.746-6.134-6.134-6.134s-6.134,2.746-6.134,6.134c0,2.431,1.418,4.525,3.468,5.518l-0.829,10.059h6.988l-0.829-10.059C28.887,39.17,30.305,37.075,30.305,34.644z"/></g></svg>
