<svg xmlns="http://www.w3.org/2000/svg" width="55.191" height="86.588" viewBox="0 0 55.191 86.588"><g stroke-linecap="round" stroke-linejoin="round" stroke-miterlimit="10"><path fill="#FF9378" stroke="#260E41" d="M24.868,0.5H14.082l7.001,20.231h10.786L24.868,0.5z"/><path fill="#8DEEFD" stroke="#260E41" d="M50.755,11.089H4.437c-2.174,0-3.937,1.784-3.937,3.985v67.028c0,2.201,1.763,3.985,3.937,3.985h46.318c2.174,0,3.936-1.784,3.936-3.985V15.074C54.691,12.873,52.929,11.089,50.755,11.089z"/><path fill="#291932" d="M37.891,16.26H17.3c-1.546,0-2.8,1.269-2.8,2.835c0,1.566,1.254,2.835,2.8,2.835h20.592c1.547,0,2.8-1.269,2.8-2.835C40.691,17.529,39.438,16.26,37.891,16.26z"/><path fill="#FF9378" stroke="#260E41" d="M41.109,0.5H30.325l-4.668,20.231h10.786L41.109,0.5z"/><path fill="#FFADDF" stroke="#260E41" d="M32.098,30.087c-2.036,1.105-3.643,2.906-4.502,5.042c-0.859-2.137-2.466-3.937-4.502-5.042c-7.52-3.938-15.213,2.724-14.627,10.646c0.369,5.627,4.43,9.993,8.332,13.681c2.132,1.996,4.335,3.902,6.623,5.714c0.94,0.753,4.175,3.208,4.175,3.208s3.234-2.456,4.175-3.208c2.288-1.812,4.49-3.718,6.623-5.714c3.902-3.689,7.963-8.054,8.332-13.681C47.311,32.811,39.618,26.149,32.098,30.087z"/><g fill="none" stroke="#260E41"><path d="M19.029,47.076c1.168,3.618,4.56,6.237,8.566,6.237s7.399-2.619,8.566-6.237"/><path d="M20.707,46.774c-1.475-0.433-2.507,0.575-2.95,1.238"/><path d="M34.484,46.774c1.475-0.433,2.507,0.575,2.95,1.238"/></g><ellipse fill="#291932" stroke="none" cx="22.937" cy="40.921" rx="2.004" ry="3.459"/><ellipse fill="#291932" stroke="none" cx="32.254" cy="40.921" rx="2.004" ry="3.459"/></g><g fill="#291932"><path d="M7.214,77.996l0.168-9.72h2.305l1.067,5.651l1.152-5.651h2.22l0.168,9.72H12.77l-0.181-6.468l-1.128,6.468h-1.355l-1.2-6.516l-0.144,6.516H7.214z"/><path d="M15.698,77.996v-9.72h4.368v1.464h-2.22v2.412h1.691v1.487h-1.691v2.904h2.244v1.452H15.698z"/><path d="M21.025,77.996l0.168-9.72h2.305l1.067,5.651l1.152-5.651h2.22l0.168,9.72h-1.523l-0.181-6.468l-1.128,6.468h-1.355l-1.2-6.516l-0.144,6.516H21.025z"/><path d="M29.51,77.996v-9.72h2.532c0.416,0,0.81,0.032,1.182,0.096c0.372,0.064,0.702,0.186,0.99,0.366c0.288,0.18,0.514,0.436,0.678,0.768s0.246,0.771,0.246,1.314c0,0.392-0.058,0.722-0.174,0.99c-0.116,0.268-0.28,0.481-0.492,0.642s-0.466,0.269-0.762,0.324c0.376,0.048,0.692,0.17,0.948,0.366c0.256,0.195,0.45,0.458,0.582,0.785c0.132,0.328,0.198,0.725,0.198,1.188c0,0.504-0.066,0.938-0.198,1.302s-0.322,0.662-0.57,0.895c-0.248,0.231-0.554,0.403-0.918,0.516s-0.782,0.168-1.254,0.168H29.51z M31.658,72.164h0.42c0.328,0,0.576-0.05,0.744-0.15c0.168-0.1,0.282-0.245,0.342-0.438s0.09-0.424,0.09-0.696c0-0.256-0.046-0.47-0.138-0.642s-0.229-0.302-0.408-0.391c-0.18-0.088-0.406-0.132-0.678-0.132h-0.372V72.164z M31.658,76.496h0.456c0.472,0,0.798-0.12,0.978-0.36c0.181-0.239,0.271-0.592,0.271-1.056c0-0.368-0.04-0.66-0.12-0.876s-0.212-0.374-0.396-0.474c-0.184-0.101-0.432-0.15-0.744-0.15h-0.443V76.496z"/><path d="M36.565,77.996v-9.72h4.368v1.464h-2.22v2.412h1.691v1.487h-1.691v2.904h2.244v1.452H36.565z"/><path d="M41.929,77.996v-9.72h2.677c0.655,0,1.224,0.071,1.703,0.216c0.48,0.144,0.854,0.402,1.122,0.773c0.269,0.372,0.402,0.898,0.402,1.578c0,0.4-0.032,0.756-0.096,1.068c-0.064,0.312-0.183,0.582-0.354,0.81c-0.172,0.229-0.418,0.419-0.738,0.57l1.332,4.704h-2.22l-1.067-4.356h-0.612v4.356H41.929z M44.078,72.404h0.6c0.304,0,0.54-0.055,0.708-0.162c0.168-0.108,0.286-0.264,0.354-0.468c0.067-0.204,0.102-0.45,0.102-0.738c0-0.416-0.076-0.74-0.228-0.972c-0.152-0.232-0.433-0.349-0.84-0.349h-0.696V72.404z"/></g></svg>
